HIERARCHY
ROOT mixamorig:Hips
{
	OFFSET -0.000008 104.274872 1.554316
	CHANNELS 6 Xposition Yposition Zposition Xrotation Yrotation Zrotation
	JOINT mixamorig:Spine
	{
		OFFSET -0.000005 10.181595 0.131519
		CHANNELS 6 Xposition Yposition Zposition Xrotation Yrotation Zrotation
		JOINT mixamorig:Spine1
		{
			OFFSET -0.000000 9.893959 -1.470707
			CHANNELS 6 Xposition Yposition Zposition Xrotation Yrotation Zrotation
			JOINT mixamorig:Spine2
			{
				OFFSET -0.000000 9.220757 -1.370641
				CHANNELS 6 Xposition Yposition Zposition Xrotation Yrotation Zrotation
				JOINT mixamorig:Neck
				{
					OFFSET 0.000001 16.740417 -2.049036
					CHANNELS 6 Xposition Yposition Zposition Xrotation Yrotation Zrotation
					JOINT mixamorig:Head
					{
						OFFSET 0.000000 9.617874 1.685006
						CHANNELS 6 Xposition Yposition Zposition Xrotation Yrotation Zrotation
						JOINT mixamorig:HeadTop_End
						{
							OFFSET 0.000002 22.037354 7.501101
							CHANNELS 6 Xposition Yposition Zposition Xrotation Yrotation Zrotation
							End Site
							{
								OFFSET 0.000168 2310.654297 -282.823242
							}
						}
					}
				}
				JOINT mixamorig:RightShoulder
				{
					OFFSET -4.569970 11.014908 -2.160885
					CHANNELS 6 Xposition Yposition Zposition Xrotation Yrotation Zrotation
					JOINT mixamorig:RightArm
					{
						OFFSET -10.592851 -0.524811 -2.232101
						CHANNELS 6 Xposition Yposition Zposition Xrotation Yrotation Zrotation
						JOINT mixamorig:RightForeArm
						{
							OFFSET -27.841511 0.000031 -0.000004
							CHANNELS 6 Xposition Yposition Zposition Xrotation Yrotation Zrotation
							JOINT mixamorig:RightHand
							{
								OFFSET -28.328831 -0.000015 0.000015
								CHANNELS 6 Xposition Yposition Zposition Xrotation Yrotation Zrotation
								JOINT mixamorig:RightHandThumb1
								{
									OFFSET -2.464806 -1.573990 2.681852
									CHANNELS 6 Xposition Yposition Zposition Xrotation Yrotation Zrotation
									JOINT mixamorig:RightHandThumb2
									{
										OFFSET -3.215179 -1.872803 1.924282
										CHANNELS 6 Xposition Yposition Zposition Xrotation Yrotation Zrotation
										JOINT mixamorig:RightHandThumb3
										{
											OFFSET -2.654831 -1.527969 1.512609
											CHANNELS 6 Xposition Yposition Zposition Xrotation Yrotation Zrotation
											JOINT mixamorig:RightHandThumb4
											{
												OFFSET -2.018814 -1.152008 1.108052
												CHANNELS 6 Xposition Yposition Zposition Xrotation Yrotation Zrotation
												End Site
												{
													OFFSET -188.809540 -114.533607 132.431396
												}
											}
										}
									}
								}
								JOINT mixamorig:RightHandIndex1
								{
									OFFSET -9.108284 -0.517868 2.259835
									CHANNELS 6 Xposition Yposition Zposition Xrotation Yrotation Zrotation
									JOINT mixamorig:RightHandIndex2
									{
										OFFSET -3.699989 0.000000 0.001215
										CHANNELS 6 Xposition Yposition Zposition Xrotation Yrotation Zrotation
										JOINT mixamorig:RightHandIndex3
										{
											OFFSET -2.850006 0.000031 -0.000522
											CHANNELS 6 Xposition Yposition Zposition Xrotation Yrotation Zrotation
											JOINT mixamorig:RightHandIndex4
											{
												OFFSET -2.772186 -0.000015 -0.000020
												CHANNELS 6 Xposition Yposition Zposition Xrotation Yrotation Zrotation
												End Site
												{
													OFFSET -277.218445 0.000000 -0.050231
												}
											}
										}
									}
								}
								JOINT mixamorig:RightHandMiddle1
								{
									OFFSET -9.532516 -0.000031 -0.000023
									CHANNELS 6 Xposition Yposition Zposition Xrotation Yrotation Zrotation
									JOINT mixamorig:RightHandMiddle2
									{
										OFFSET -3.700005 -0.000015 0.003713
										CHANNELS 6 Xposition Yposition Zposition Xrotation Yrotation Zrotation
										JOINT mixamorig:RightHandMiddle3
										{
											OFFSET -2.949974 0.000015 -0.002054
											CHANNELS 6 Xposition Yposition Zposition Xrotation Yrotation Zrotation
											JOINT mixamorig:RightHandMiddle4
											{
												OFFSET -2.946640 0.000000 -0.000156
												CHANNELS 6 Xposition Yposition Zposition Xrotation Yrotation Zrotation
												End Site
												{
													OFFSET -294.664337 0.000000 -0.113670
												}
											}
										}
									}
								}
								JOINT mixamorig:RightHandRing1
								{
									OFFSET -9.103600 -0.043076 -1.865134
									CHANNELS 6 Xposition Yposition Zposition Xrotation Yrotation Zrotation
									JOINT mixamorig:RightHandRing2
									{
										OFFSET -3.379288 0.000000 -0.001055
										CHANNELS 6 Xposition Yposition Zposition Xrotation Yrotation Zrotation
										JOINT mixamorig:RightHandRing3
										{
											OFFSET -2.889687 -0.000015 0.000379
											CHANNELS 6 Xposition Yposition Zposition Xrotation Yrotation Zrotation
											JOINT mixamorig:RightHandRing4
											{
												OFFSET -2.638809 -0.000015 0.000941
												CHANNELS 6 Xposition Yposition Zposition Xrotation Yrotation Zrotation
												End Site
												{
													OFFSET -263.880371 0.000000 0.516020
												}
											}
										}
									}
								}
								JOINT mixamorig:RightHandPinky1
								{
									OFFSET -8.076683 -0.486710 -3.806280
									CHANNELS 6 Xposition Yposition Zposition Xrotation Yrotation Zrotation
									JOINT mixamorig:RightHandPinky2
									{
										OFFSET -3.600014 -0.000015 -0.003747
										CHANNELS 6 Xposition Yposition Zposition Xrotation Yrotation Zrotation
										JOINT mixamorig:RightHandPinky3
										{
											OFFSET -2.099983 0.000000 -0.005739
											CHANNELS 6 Xposition Yposition Zposition Xrotation Yrotation Zrotation
											JOINT mixamorig:RightHandPinky4
											{
												OFFSET -2.115768 -0.000031 -0.003680
												CHANNELS 6 Xposition Yposition Zposition Xrotation Yrotation Zrotation
												End Site
												{
													OFFSET -211.577087 0.000000 -0.350686
												}
											}
										}
									}
								}
							}
						}
					}
				}
				JOINT mixamorig:LeftShoulder
				{
					OFFSET 4.570447 11.014725 -2.160855
					CHANNELS 6 Xposition Yposition Zposition Xrotation Yrotation Zrotation
					JOINT mixamorig:LeftArm
					{
						OFFSET 10.592371 -0.524597 -2.232119
						CHANNELS 6 Xposition Yposition Zposition Xrotation Yrotation Zrotation
						JOINT mixamorig:LeftForeArm
						{
							OFFSET 27.841532 -0.000031 0.000026
							CHANNELS 6 Xposition Yposition Zposition Xrotation Yrotation Zrotation
							JOINT mixamorig:LeftHand
							{
								OFFSET 28.328846 -0.000061 0.000022
								CHANNELS 6 Xposition Yposition Zposition Xrotation Yrotation Zrotation
								JOINT mixamorig:LeftHandThumb1
								{
									OFFSET 2.466141 -1.576172 2.681732
									CHANNELS 6 Xposition Yposition Zposition Xrotation Yrotation Zrotation
									JOINT mixamorig:LeftHandThumb2
									{
										OFFSET 3.217812 -1.872070 1.916482
										CHANNELS 6 Xposition Yposition Zposition Xrotation Yrotation Zrotation
										JOINT mixamorig:LeftHandThumb3
										{
											OFFSET 2.656029 -1.528778 1.514513
											CHANNELS 6 Xposition Yposition Zposition Xrotation Yrotation Zrotation
											JOINT mixamorig:LeftHandThumb4
											{
												OFFSET 2.020889 -1.154053 1.115139
												CHANNELS 6 Xposition Yposition Zposition Xrotation Yrotation Zrotation
												End Site
												{
													OFFSET 190.885437 -115.081749 130.048782
												}
											}
										}
									}
								}
								JOINT mixamorig:LeftHandIndex1
								{
									OFFSET 9.109314 -0.518021 2.259871
									CHANNELS 6 Xposition Yposition Zposition Xrotation Yrotation Zrotation
									JOINT mixamorig:LeftHandIndex2
									{
										OFFSET 3.699989 0.000000 -0.000322
										CHANNELS 6 Xposition Yposition Zposition Xrotation Yrotation Zrotation
										JOINT mixamorig:LeftHandIndex3
										{
											OFFSET 2.850006 0.000000 0.000352
											CHANNELS 6 Xposition Yposition Zposition Xrotation Yrotation Zrotation
											JOINT mixamorig:LeftHandIndex4
											{
												OFFSET 2.774864 -0.000031 -0.000027
												CHANNELS 6 Xposition Yposition Zposition Xrotation Yrotation Zrotation
												End Site
												{
													OFFSET 277.486267 0.000000 -0.009857
												}
											}
										}
									}
								}
								JOINT mixamorig:LeftHandMiddle1
								{
									OFFSET 9.533394 0.000061 0.000044
									CHANNELS 6 Xposition Yposition Zposition Xrotation Yrotation Zrotation
									JOINT mixamorig:LeftHandMiddle2
									{
										OFFSET 3.699989 -0.000015 -0.000231
										CHANNELS 6 Xposition Yposition Zposition Xrotation Yrotation Zrotation
										JOINT mixamorig:LeftHandMiddle3
										{
											OFFSET 2.949997 -0.000015 -0.000059
											CHANNELS 6 Xposition Yposition Zposition Xrotation Yrotation Zrotation
											JOINT mixamorig:LeftHandMiddle4
											{
												OFFSET 2.952896 0.000031 0.000063
												CHANNELS 6 Xposition Yposition Zposition Xrotation Yrotation Zrotation
												End Site
												{
													OFFSET 295.289337 0.000000 0.022810
												}
											}
										}
									}
								}
								JOINT mixamorig:LeftHandRing1
								{
									OFFSET 9.104523 -0.042999 -1.865074
									CHANNELS 6 Xposition Yposition Zposition Xrotation Yrotation Zrotation
									JOINT mixamorig:LeftHandRing2
									{
										OFFSET 3.150009 -0.000031 0.000043
										CHANNELS 6 Xposition Yposition Zposition Xrotation Yrotation Zrotation
										JOINT mixamorig:LeftHandRing3
										{
											OFFSET 2.949982 -0.000015 0.000040
											CHANNELS 6 Xposition Yposition Zposition Xrotation Yrotation Zrotation
											JOINT mixamorig:LeftHandRing4
											{
												OFFSET 2.644348 0.000000 0.000057
												CHANNELS 6 Xposition Yposition Zposition Xrotation Yrotation Zrotation
												End Site
												{
													OFFSET 264.434631 0.000000 0.012105
												}
											}
										}
									}
								}
								JOINT mixamorig:LeftHandPinky1
								{
									OFFSET 8.077789 -0.486847 -3.806259
									CHANNELS 6 Xposition Yposition Zposition Xrotation Yrotation Zrotation
									JOINT mixamorig:LeftHandPinky2
									{
										OFFSET 3.599953 0.000031 0.014727
										CHANNELS 6 Xposition Yposition Zposition Xrotation Yrotation Zrotation
										JOINT mixamorig:LeftHandPinky3
										{
											OFFSET 2.100021 0.000015 0.007705
											CHANNELS 6 Xposition Yposition Zposition Xrotation Yrotation Zrotation
											JOINT mixamorig:LeftHandPinky4
											{
												OFFSET 2.125504 0.000031 0.007517
												CHANNELS 6 Xposition Yposition Zposition Xrotation Yrotation Zrotation
												End Site
												{
													OFFSET 212.550781 0.000000 0.625752
												}
											}
										}
									}
								}
							}
						}
					}
				}
			}
		}
	}
	JOINT mixamorig:RightUpLeg
	{
		OFFSET -8.207787 -6.751648 -1.599560
		CHANNELS 6 Xposition Yposition Zposition Xrotation Yrotation Zrotation
		JOINT mixamorig:RightLeg
		{
			OFFSET -0.000002 -44.370117 0.345942
			CHANNELS 6 Xposition Yposition Zposition Xrotation Yrotation Zrotation
			JOINT mixamorig:RightFoot
			{
				OFFSET 0.000003 -44.423679 -3.043532
				CHANNELS 6 Xposition Yposition Zposition Xrotation Yrotation Zrotation
				JOINT mixamorig:RightToeBase
				{
					OFFSET -0.000002 -8.728671 10.710558
					CHANNELS 6 Xposition Yposition Zposition Xrotation Yrotation Zrotation
					JOINT mixamorig:RightToe_End
					{
						OFFSET -0.000001 -0.000679 9.278119
						CHANNELS 6 Xposition Yposition Zposition Xrotation Yrotation Zrotation
						End Site
						{
							OFFSET 0.000000 -0.067690 927.812134
						}
					}
				}
			}
		}
	}
	JOINT mixamorig:LeftUpLeg
	{
		OFFSET 8.207793 -6.751686 -1.599556
		CHANNELS 6 Xposition Yposition Zposition Xrotation Yrotation Zrotation
		JOINT mixamorig:LeftLeg
		{
			OFFSET -0.000004 -44.370014 0.346954
			CHANNELS 6 Xposition Yposition Zposition Xrotation Yrotation Zrotation
			JOINT mixamorig:LeftFoot
			{
				OFFSET -0.000001 -44.423672 -3.044401
				CHANNELS 6 Xposition Yposition Zposition Xrotation Yrotation Zrotation
				JOINT mixamorig:LeftToeBase
				{
					OFFSET -0.000002 -8.728669 10.710558
					CHANNELS 6 Xposition Yposition Zposition Xrotation Yrotation Zrotation
					JOINT mixamorig:LeftToe_End
					{
						OFFSET -0.000003 -0.000679 9.278133
						CHANNELS 6 Xposition Yposition Zposition Xrotation Yrotation Zrotation
						End Site
						{
							OFFSET 0.000000 -0.068021 927.813477
						}
					}
				}
			}
		}
	}
}
MOTION
Frames: 3
Frame Time: 0.033333
0.000006 104.270477 1.554256 0.000010 0.000003 -0.000113 -0.000005 10.181587 0.131522 0.000001 -0.000003 0.000084 -0.000000 9.893967 -1.470711 0.000001 0.000000 -0.000000 -0.000000 9.220802 -1.370642 0.000000 -0.000000 -0.000000 0.000001 16.740433 -2.049030 0.000000 -0.000000 -0.000000 0.000000 9.617859 1.685014 0.000000 0.000000 0.000000 0.000002 22.037384 7.501101 0.000000 -0.000000 0.000000 -4.569968 11.014880 -2.160881 0.000008 0.000001 -0.000038 -10.592724 -0.524824 -2.231697 85.510260 82.687534 -78.256414 -27.841505 0.000001 0.000572 65.349481 106.927889 -81.760008 -28.328835 0.000022 0.000035 -0.000321 -0.000045 0.000006 -2.464836 -1.574061 2.681906 -21.618635 -352.448580 -7.907772 -3.215116 -1.872954 1.924357 -43.251596 -9.805858 -11.548977 -2.654782 -1.528225 1.512717 124.573512 194.628003 -196.277343 -2.018827 -1.151987 1.108048 -0.000003 -0.000002 0.000005 -9.108320 -0.518039 2.260210 93.438764 171.091458 -171.579270 -3.700045 -0.000148 0.001580 -88.664796 12.619454 12.317155 -2.850062 -0.000131 -0.000144 -86.112662 12.031095 11.245995 -2.772175 -0.000017 -0.000039 -0.000003 -0.000001 -0.000001 -9.532522 -0.000219 0.000331 -84.807167 7.157961 6.629365 -3.700036 -0.000158 0.004089 -88.812048 10.696068 10.415466 -2.950029 -0.000201 -0.001690 -86.770272 8.389613 7.926285 -2.946616 0.000001 -0.000156 -0.000001 -0.000002 -0.000000 -9.103629 -0.043226 -1.864789 -82.666736 6.429762 5.628957 -3.379290 -0.000211 -0.000672 -86.658216 5.631657 5.325601 -2.889712 -0.000154 0.000716 -83.467418 3.754357 3.383200 -2.638817 -0.000015 0.000957 0.000000 -0.000001 0.000000 -8.076678 -0.486895 -3.805981 -83.331757 4.691622 4.076878 -3.599984 -0.000257 -0.003452 -82.307748 -0.757185 -0.939820 -2.099981 -0.000243 -0.005443 -81.974025 -1.856754 -1.793909 -2.115774 -0.000055 -0.003677 -0.000000 0.000001 -0.000004 4.570446 11.014691 -2.160851 -0.000018 0.000010 -0.000021 10.592514 -0.524580 -2.232356 44.360955 -79.087792 37.206865 27.841747 -0.000073 -0.000111 235.129863 -77.159930 246.399730 28.328833 -0.000029 0.000017 0.000019 -0.000089 -0.000001 2.466142 -1.576193 2.681821 145.598104 168.252107 -171.851261 3.217825 -1.871974 1.916547 308.256655 15.169565 374.611888 2.656069 -1.528751 1.514601 302.764254 13.178036 16.765920 2.020871 -1.154072 1.115145 -0.000001 0.000002 0.000008 9.109279 -0.517854 2.260104 87.142586 -170.217344 169.728070 3.699968 0.000172 -0.000091 83.229584 -171.337891 170.240389 2.849994 0.000217 0.000597 77.483517 -173.788986 172.264338 2.774871 -0.000046 -0.000020 -0.000002 0.000000 0.000000 9.533374 0.000226 0.000287 268.146506 -9.097031 -9.388740 3.699978 0.000207 -0.000006 -96.549840 -6.615122 -7.413800 2.950005 0.000206 0.000183 80.537711 -175.697286 174.919082 2.952876 -0.000030 0.000061 0.000001 -0.000000 -0.000001 9.104510 -0.042845 -1.864828 268.384989 -6.866137 -7.063397 3.149995 0.000203 0.000279 -95.175913 -1.892093 -2.072812 2.949985 0.000182 0.000265 -95.074396 -0.451705 -0.495193 2.644326 0.000015 0.000074 -0.000002 0.000000 -0.000000 8.077758 -0.486732 -3.806031 272.226205 -5.439750 -5.638746 3.599948 0.000165 0.014951 -86.555251 1.670102 1.165053 2.100004 0.000164 0.007928 273.500664 3.217944 2.626503 2.125490 -0.000001 0.007507 -0.000001 -0.000000 -0.000001 -8.207786 -6.751667 -1.599560 -0.077001 -0.000003 0.000080 -0.000002 -44.370110 0.345938 0.153719 -0.000000 -0.000000 0.000000 -44.423679 -3.043532 -0.076700 0.000000 -0.000002 -0.000006 -8.728667 10.710559 -0.000009 -0.000000 -0.000000 -0.000001 -0.000679 9.278123 0.000000 -0.000000 -0.000000 8.207792 -6.751710 -1.599556 -0.074518 -0.000003 0.000081 -0.000002 -44.370014 0.346960 0.148822 0.000002 0.000000 -0.000001 -44.423664 -3.044403 -0.074314 0.000000 -0.000002 -0.000004 -8.728671 10.710558 0.000007 -0.000000 -0.000000 0.000000 -0.000680 9.278137 -0.000000 0.000000 -0.000001 
0.000006 104.270477 1.554256 0.000010 0.000003 -0.000113 -0.000005 10.181587 0.131522 0.000001 -0.000003 0.000084 -0.000000 9.893967 -1.470711 0.000001 0.000000 -0.000000 -0.000000 9.220802 -1.370642 0.000000 -0.000000 -0.000000 0.000001 16.740433 -2.049030 0.000000 -0.000000 -0.000000 0.000000 9.617859 1.685014 0.000000 0.000000 0.000000 0.000002 22.037384 7.501101 0.000000 -0.000000 0.000000 -4.569968 11.014880 -2.160881 0.000008 0.000001 -0.000038 -10.592726 -0.524831 -2.231697 76.285358 83.637067 -70.183780 -27.841515 0.000031 0.000564 68.500056 106.117938 -84.321103 -28.328838 -0.000006 0.000023 -0.000323 -0.000045 0.000008 -2.464849 -1.574067 2.681925 -19.256748 -348.998160 -8.328626 -3.215160 -1.872944 1.924363 -42.340418 -4.214302 -11.431029 -2.654784 -1.528220 1.512742 119.085687 191.462579 -197.966203 -2.018826 -1.151980 1.108046 -0.000002 0.000002 0.000002 -9.108325 -0.518057 2.260151 103.761153 168.767568 -171.152519 -3.700037 -0.000147 0.001561 -85.100762 13.423051 12.317836 -2.850052 -0.000143 -0.000137 -90.078386 11.190665 11.205269 -2.772171 -0.000019 0.000012 0.000000 -0.000003 0.000000 -9.532537 -0.000242 0.000296 -75.518355 8.855888 6.938638 -3.700029 -0.000167 0.004080 -84.450952 10.367630 9.355473 -2.950032 -0.000187 -0.001680 -89.554961 8.071173 8.003871 -2.946625 0.000002 -0.000146 -0.000000 -0.000001 0.000000 -9.103625 -0.043243 -1.864819 -76.984940 7.196625 5.701105 -3.379292 -0.000201 -0.000726 -80.210634 3.803487 3.215563 -2.889715 -0.000174 0.000684 -80.508287 1.951925 1.686102 -2.638810 -0.000014 0.000940 -0.000001 0.000002 0.000000 -8.076674 -0.486890 -3.806014 -75.908660 4.637411 3.531546 -3.599975 -0.000272 -0.003480 -73.766023 -3.651652 -2.991169 -2.099965 -0.000235 -0.005500 -74.109431 -4.941476 -3.897133 -2.115772 -0.000056 -0.003684 0.000001 0.000001 -0.000005 4.570446 11.014691 -2.160851 -0.000018 0.000010 -0.000021 10.592514 -0.524583 -2.232353 42.270545 -80.007190 35.947955 27.841749 -0.000036 -0.000111 236.969069 -77.442153 248.178257 28.328840 -0.000044 0.000015 0.000019 -0.000089 -0.000001 2.466137 -1.576176 2.681801 153.695048 171.940696 -174.080485 3.217848 -1.871984 1.916551 310.671428 14.324490 373.680633 2.656049 -1.528757 1.514631 305.588619 8.866672 15.409257 2.020895 -1.154083 1.115156 0.000001 0.000003 0.000001 9.109295 -0.517839 2.260110 89.378223 -171.741405 171.660153 3.699972 0.000157 -0.000078 85.212265 -171.130267 170.347049 2.849997 0.000212 0.000606 79.084103 -172.943040 171.458211 2.774887 -0.000014 -0.000032 0.000003 0.000001 0.000000 9.533383 0.000197 0.000283 270.854211 -7.841247 -7.719536 3.699980 0.000179 -0.000011 -96.348875 -6.597677 -7.368272 2.949987 0.000179 0.000192 79.571437 -175.369574 174.438209 2.952867 -0.000028 0.000039 0.000002 -0.000000 -0.000001 9.104506 -0.042856 -1.864835 270.970079 -5.278373 -5.191290 3.150008 0.000191 0.000267 -94.068685 -0.261169 -0.282042 2.949986 0.000170 0.000272 -94.684597 0.511194 0.553176 2.644327 0.000017 0.000068 0.000002 -0.000001 -0.000000 8.077770 -0.486724 -3.806020 276.048925 -2.978997 -3.079272 3.599964 0.000147 0.014938 -84.435181 4.108317 3.319432 2.100024 0.000144 0.007917 274.749851 4.741507 3.962848 2.125505 -0.000030 0.007533 0.000000 0.000002 -0.000001 -8.207786 -6.751667 -1.599560 -0.077001 -0.000003 0.000080 -0.000002 -44.370110 0.345938 0.153719 -0.000000 -0.000000 0.000000 -44.423679 -3.043532 -0.076700 0.000000 -0.000002 -0.000006 -8.728667 10.710559 -0.000009 -0.000000 -0.000000 -0.000001 -0.000679 9.278123 0.000000 -0.000000 -0.000000 8.207792 -6.751710 -1.599556 -0.074518 -0.000003 0.000081 -0.000002 -44.370014 0.346960 0.148822 0.000002 0.000000 -0.000001 -44.423664 -3.044403 -0.074314 0.000000 -0.000002 -0.000004 -8.728671 10.710558 0.000007 -0.000000 -0.000000 0.000000 -0.000680 9.278137 -0.000000 0.000000 -0.000001 
0.000006 104.270477 1.554256 0.000010 0.000003 -0.000113 -0.000005 10.181587 0.131522 0.000001 -0.000003 0.000084 -0.000000 9.893967 -1.470711 0.000001 0.000000 -0.000000 -0.000000 9.220802 -1.370642 0.000000 -0.000000 -0.000000 0.000001 16.740433 -2.049030 0.000000 -0.000000 -0.000000 0.000000 9.617859 1.685014 0.000000 0.000000 0.000000 0.000002 22.037384 7.501101 0.000000 -0.000000 0.000000 -4.569968 11.014880 -2.160881 0.000008 0.000001 -0.000038 -10.592730 -0.524824 -2.231699 72.089894 82.528841 -65.119474 -27.841515 0.000011 0.000557 69.561932 104.513642 -83.797699 -28.328836 0.000021 0.000032 -0.000322 -0.000044 0.000007 -2.464924 -1.573960 2.681982 -4.190971 -330.040751 -13.951863 -3.215261 -1.872822 1.924397 -28.343345 19.763555 -11.061141 -2.654934 -1.528128 1.512763 138.720678 160.485745 -191.903345 -2.018807 -1.151999 1.108056 -0.000003 -0.000003 0.000000 -9.108345 -0.518033 2.260093 117.708666 166.827111 -172.000542 -3.700058 -0.000137 0.001520 -66.375211 19.142102 12.580149 -2.850091 -0.000148 -0.000240 -65.095753 16.017342 10.262261 -2.772163 0.000001 -0.000015 0.000002 -0.000000 -0.000000 -9.532534 -0.000232 0.000237 -63.975889 8.213934 5.195398 -3.700058 -0.000169 0.003989 -65.334823 13.176961 8.433577 -2.950026 -0.000194 -0.001775 -64.937573 12.051733 7.682569 -2.946622 0.000001 -0.000166 -0.000002 0.000001 -0.000001 -9.103641 -0.043242 -1.864876 -64.434195 6.506046 4.082861 -3.379302 -0.000194 -0.000803 -63.863573 7.497470 4.684565 -2.889741 -0.000161 0.000617 -60.607957 6.358451 3.739424 -2.638807 -0.000032 0.000930 -0.000001 -0.000001 -0.000001 -8.076692 -0.486856 -3.806048 -63.649795 4.105467 2.479564 -3.599980 -0.000260 -0.003557 -60.349564 -1.702695 -1.178603 -2.099976 -0.000222 -0.005569 -58.573066 -2.293831 -1.404717 -2.115776 -0.000055 -0.003686 0.000002 -0.000000 -0.000003 4.570446 11.014691 -2.160851 -0.000018 0.000010 -0.000021 10.592514 -0.524578 -2.232355 44.824366 -79.569525 37.908011 27.841747 -0.000072 -0.000106 237.366778 -77.147738 248.899607 28.328833 -0.000044 0.000014 0.000021 -0.000089 -0.000000 2.466140 -1.576220 2.681786 160.327284 173.474948 -175.940837 3.217829 -1.871970 1.916574 315.449773 13.126337 371.925165 2.656060 -1.528758 1.514631 302.141013 10.518946 16.727150 2.020895 -1.154069 1.115165 -0.000004 0.000003 0.000004 9.109292 -0.517877 2.260100 91.306112 -174.832598 174.957782 3.699983 0.000147 -0.000082 89.313166 -172.404179 172.300579 2.849980 0.000202 0.000602 85.104581 -173.813001 173.262706 2.774873 -0.000016 -0.000023 0.000004 -0.000001 -0.000001 9.533402 0.000172 0.000284 273.175602 -4.075077 -3.849158 3.699988 0.000162 0.000003 -91.926293 -5.862391 -6.060451 2.950004 0.000180 0.000177 87.299209 -175.418601 175.195267 2.952867 -0.000016 0.000070 0.000001 -0.000000 -0.000001 9.104527 -0.042895 -1.864837 274.444596 -3.095069 -2.865316 3.149990 0.000179 0.000245 -89.265696 -3.357929 -3.316619 2.949972 0.000151 0.000281 -88.625359 -2.200881 -2.150094 2.644325 0.000045 0.000044 -0.000001 -0.000000 0.000000 8.077778 -0.486757 -3.806035 279.059126 -0.094294 -0.479791 3.599961 0.000141 0.014917 -80.999295 5.171286 4.026484 2.100009 0.000117 0.007937 278.038642 5.138455 4.083031 2.125504 -0.000030 0.007507 -0.000000 0.000000 -0.000000 -8.207786 -6.751667 -1.599560 -0.077001 -0.000003 0.000080 -0.000002 -44.370110 0.345938 0.153719 -0.000000 -0.000000 0.000000 -44.423679 -3.043532 -0.076700 0.000000 -0.000002 -0.000006 -8.728667 10.710559 -0.000009 -0.000000 -0.000000 -0.000001 -0.000679 9.278123 0.000000 -0.000000 -0.000000 8.207792 -6.751710 -1.599556 -0.074518 -0.000003 0.000081 -0.000002 -44.370014 0.346960 0.148822 0.000002 0.000000 -0.000001 -44.423664 -3.044403 -0.074314 0.000000 -0.000002 -0.000004 -8.728671 10.710558 0.000007 -0.000000 -0.000000 0.000000 -0.000680 9.278137 -0.000000 0.000000 -0.000001 
